<svg width="86" height="48" viewBox="0 0 86 48" fill="none" xmlns="http://www.w3.org/2000/svg">
<rect width="86" height="48" rx="10" fill="#04578F"/>
<path d="M41.0001 14.7996C42.2201 14.7996 43.3901 14.315 44.2528 13.4523C45.1154 12.5896 45.6001 11.4196 45.6001 10.1996C45.6001 8.97961 45.1154 7.80959 44.2528 6.94692C43.3901 6.08425 42.2201 5.59961 41.0001 5.59961C39.7801 5.59961 38.61 6.08425 37.7474 6.94692C36.8847 7.80959 36.4001 8.97961 36.4001 10.1996C36.4001 11.4196 36.8847 12.5896 37.7474 13.4523C38.61 14.315 39.7801 14.7996 41.0001 14.7996ZM30.5857 10.5446C29.61 10.111 28.5025 10.0804 27.5044 10.4595C26.5063 10.8386 25.6984 11.5966 25.2566 12.5686C24.3366 14.5972 25.2405 16.9777 27.2737 17.8816L33.417 20.6186C33.6203 20.7089 33.7931 20.8563 33.9143 21.0429C34.0356 21.2295 34.1001 21.4472 34.1001 21.6697V25.9592C34.1003 26.1066 34.0722 26.2526 34.0173 26.3893L29.7853 36.8658C29.398 37.853 29.416 38.9532 29.8353 39.9272C30.2546 40.9012 31.0413 41.6704 32.0245 42.0676C33.0078 42.4649 34.108 42.458 35.0863 42.0486C36.0645 41.6392 36.8416 40.8603 37.2488 39.8811L37.4443 39.3912C36.6462 37.5553 36.2953 35.5562 36.4203 33.5582C36.5453 31.5603 37.1427 29.6205 38.1634 27.8984C39.1841 26.1763 40.5989 24.721 42.2916 23.6522C43.9843 22.5833 45.9064 21.9315 47.9001 21.7502V21.6697C47.9 21.4472 47.9646 21.2295 48.0858 21.0429C48.2071 20.8563 48.3798 20.7089 48.5832 20.6186L54.7265 17.8816C55.2094 17.6672 55.6451 17.3592 56.0084 16.9754C56.3717 16.5917 56.6554 16.1398 56.8432 15.6459C57.0309 15.1519 57.119 14.6257 57.1023 14.0975C57.0856 13.5693 56.9644 13.0497 56.7459 12.5686C56.304 11.5961 55.4957 10.8376 54.4971 10.4584C53.4984 10.0793 52.3904 10.1103 51.4145 10.5446L48.4797 11.8533C47.9139 12.1063 47.5114 12.5594 47.2837 13.0585C46.7357 14.2651 45.8518 15.2884 44.7377 16.006C43.6236 16.7237 42.3264 17.1053 41.0012 17.1053C39.676 17.1053 38.3788 16.7237 37.2647 16.006C36.1506 15.2884 35.2668 14.2651 34.7188 13.0585C34.4809 12.524 34.0554 12.0953 33.5228 11.8533L30.5857 10.5446ZM59.4001 34.3496C59.4001 37.0946 58.3096 39.7272 56.3686 41.6682C54.4276 43.6092 51.7951 44.6996 49.0501 44.6996C46.3051 44.6996 43.6725 43.6092 41.7315 41.6682C39.7905 39.7272 38.7001 37.0946 38.7001 34.3496C38.7001 31.6046 39.7905 28.9721 41.7315 27.0311C43.6725 25.0901 46.3051 23.9996 49.0501 23.9996C51.7951 23.9996 54.4276 25.0901 56.3686 27.0311C58.3096 28.9721 59.4001 31.6046 59.4001 34.3496ZM49.0501 38.6736C48.6688 38.6736 48.3032 38.8251 48.0336 39.0946C47.764 39.3642 47.6126 39.7299 47.6126 40.1111C47.6126 40.4924 47.764 40.858 48.0336 41.1276C48.3032 41.3972 48.6688 41.5486 49.0501 41.5486C49.4313 41.5486 49.7969 41.3972 50.0665 41.1276C50.3361 40.858 50.4876 40.4924 50.4876 40.1111C50.4876 39.7299 50.3361 39.3642 50.0665 39.0946C49.7969 38.8251 49.4313 38.6736 49.0501 38.6736ZM49.0501 27.4565C46.6397 27.4565 44.7629 29.3379 44.7882 31.953C44.7897 32.104 44.8209 32.2533 44.8801 32.3922C44.9393 32.5312 45.0253 32.6571 45.1331 32.7628C45.241 32.8685 45.3686 32.952 45.5087 33.0084C45.6488 33.0648 45.7986 33.093 45.9497 33.0915C46.1007 33.09 46.2499 33.0588 46.3889 32.9996C46.5278 32.9404 46.6537 32.8544 46.7595 32.7466C46.8652 32.6387 46.9486 32.5111 47.005 32.371C47.0614 32.2309 47.0897 32.081 47.0882 31.93C47.0744 30.5983 47.9162 29.7565 49.0501 29.7565C50.138 29.7565 51.0143 30.6581 51.0143 31.9415C51.0143 32.4061 50.8487 32.666 50.1863 33.1927L49.5469 33.6872C48.3831 34.6164 47.9001 35.3363 47.9001 36.6496C47.8995 36.937 48.0066 37.2141 48.2002 37.4265C48.3938 37.6389 48.66 37.7711 48.9462 37.797C49.2324 37.823 49.5179 37.7409 49.7466 37.5668C49.9752 37.3928 50.1305 37.1394 50.1817 36.8566L50.207 36.4978C50.2461 36.1574 50.437 35.9136 51.0028 35.4674L51.6399 34.9729C52.8198 34.0299 53.3143 33.2893 53.3143 31.9415C53.3143 29.4023 51.4214 27.4565 49.0501 27.4565Z" fill="white"/>
</svg>
