<svg width="41" height="37" viewBox="0 0 41 37" fill="none" xmlns="http://www.w3.org/2000/svg">
<path d="M20.4965 0C18.6845 0 16.9467 0.730887 15.6655 2.03187C14.3842 3.33286 13.6644 5.09737 13.6644 6.93725C13.6644 8.77712 14.3842 10.5416 15.6655 11.8426C16.9467 13.1436 18.6845 13.8745 20.4965 13.8745C22.3085 13.8745 24.0463 13.1436 25.3275 11.8426C26.6088 10.5416 27.3286 8.77712 27.3286 6.93725C27.3286 5.09737 26.6088 3.33286 25.3275 2.03187C24.0463 0.730887 22.3085 0 20.4965 0ZM9.23033 18.4901C9.1529 18.8662 9.11419 19.2547 9.11419 19.6555V27.749C9.1127 29.4278 9.47201 31.0867 10.167 32.61C10.8621 34.1333 11.8761 35.4842 13.1383 36.5685L12.7489 36.6842C11.5933 36.9989 10.3879 37.0794 9.20166 36.9211C8.01541 36.7628 6.87149 36.3688 5.83523 35.7615C4.79898 35.1542 3.89069 34.3456 3.16224 33.3819C2.43379 32.4181 1.89945 31.3181 1.58974 30.1447L0.116281 24.5602C0.000227198 24.1202 -0.0293317 23.6612 0.0292921 23.2096C0.0879158 22.758 0.233574 22.3225 0.45795 21.9281C0.682326 21.5336 0.981024 21.1879 1.33699 20.9106C1.69296 20.6334 2.09922 20.4301 2.53258 20.3123L9.23033 18.4901ZM27.8638 36.5685C29.126 35.4842 30.1401 34.1333 30.8351 32.61C31.5301 31.0867 31.8894 29.4278 31.8879 27.749V19.6555C31.8864 19.2547 31.8485 18.8662 31.7741 18.4901L38.4695 20.3123C39.3443 20.5507 40.0901 21.1321 40.5427 21.9287C40.9954 22.7253 41.118 23.6718 40.8836 24.5602L39.4101 30.1447C39.0915 31.3513 38.5355 32.48 37.7756 33.4625C37.0157 34.445 36.0676 35.2611 34.9886 35.8614C33.9096 36.4617 32.722 36.8339 31.4975 36.9554C30.273 37.0769 29.0369 36.9453 27.8638 36.5685ZM35.2994 4.62483C33.7894 4.62483 32.3413 5.2339 31.2736 6.31806C30.2058 7.40222 29.606 8.87265 29.606 10.4059C29.606 11.9391 30.2058 13.4095 31.2736 14.4937C32.3413 15.5778 33.7894 16.1869 35.2994 16.1869C36.8094 16.1869 38.2576 15.5778 39.3253 14.4937C40.393 13.4095 40.9929 11.9391 40.9929 10.4059C40.9929 8.87265 40.393 7.40222 39.3253 6.31806C38.2576 5.2339 36.8094 4.62483 35.2994 4.62483ZM5.69357 4.62483C4.18358 4.62483 2.73543 5.2339 1.6677 6.31806C0.599977 7.40222 0.000134927 8.87265 0.000134927 10.4059C0.000134927 11.9391 0.599977 13.4095 1.6677 14.4937C2.73543 15.5778 4.18358 16.1869 5.69357 16.1869C7.20356 16.1869 8.65171 15.5778 9.71944 14.4937C10.7872 13.4095 11.387 11.9391 11.387 10.4059C11.387 8.87265 10.7872 7.40222 9.71944 6.31806C8.65171 5.2339 7.20356 4.62483 5.69357 4.62483ZM14.8031 16.1869C13.8971 16.1869 13.0282 16.5524 12.3875 17.2028C11.7469 17.8533 11.387 18.7356 11.387 19.6555V27.749C11.387 30.2022 12.3468 32.5548 14.0551 34.2895C15.7635 36.0241 18.0805 36.9987 20.4965 36.9987C22.9125 36.9987 25.2295 36.0241 26.9379 34.2895C28.6463 32.5548 29.606 30.2022 29.606 27.749V19.6555C29.606 18.7356 29.2461 17.8533 28.6055 17.2028C27.9648 16.5524 27.0959 16.1869 26.1899 16.1869H14.8031Z" fill="white"/>
</svg>
