<?xml version="1.0" encoding="UTF-8"?>
<svg id="svg2" xmlns="http://www.w3.org/2000/svg" xmlns:svg="http://www.w3.org/2000/svg" xmlns:sodipodi="http://sodipodi.sourceforge.net/DTD/sodipodi-0.dtd" xmlns:rdf="http://www.w3.org/1999/02/22-rdf-syntax-ns#" xmlns:inkscape="http://www.inkscape.org/namespaces/inkscape" xmlns:dc="http://purl.org/dc/elements/1.1/" xmlns:cc="http://creativecommons.org/ns#" version="1.1" viewBox="0 0 385.47 385.42">
  <!-- Generator: Adobe Illustrator 30.3.0, SVG Export Plug-In . SVG Version: 2.1.3 Build 182)  -->
  <defs>
    <style>
      .st0 {
        fill: #249200;
      }

      .st0, .st1 {
        fill-rule: evenodd;
      }

      .st1 {
        fill: #004ad6;
      }
    </style>
  </defs>
  <sodipodi:namedview id="base" bordercolor="#666666" borderopacity="1.0" fit-margin-bottom="0" fit-margin-left="0" fit-margin-right="0" fit-margin-top="0" inkscape:current-layer="layer5" inkscape:cx="662.16207" inkscape:cy="246.89186" inkscape:deskcolor="#d1d1d1" inkscape:document-units="px" inkscape:guide-bbox="true" inkscape:object-nodes="false" inkscape:object-paths="false" inkscape:pagecheckerboard="0" inkscape:pageopacity="0.0" inkscape:pageshadow="2" inkscape:showpageshadow="2" inkscape:snap-bbox="true" inkscape:snap-bbox-midpoints="true" inkscape:snap-center="true" inkscape:snap-global="true" inkscape:snap-intersection-paths="false" inkscape:snap-nodes="true" inkscape:snap-object-midpoints="true" inkscape:snap-smooth-nodes="false" inkscape:window-height="1017" inkscape:window-maximized="1" inkscape:window-width="1920" inkscape:window-x="-8" inkscape:window-y="-8" inkscape:zoom="0.5285715" pagecolor="#ffffff" showgrid="false" showguides="true" units="px"/>
  <g id="layer5" inkscape:groupmode="layer" inkscape:label="Blue">
    <g id="g3">
      <g id="g2">
        <path id="path3350" class="st1" d="M192.75,0C160.23,0,129.58,7.95,102.7,21.98l13.91,8.64v-12.03c5.94-.97,12.06-1.49,18.28-1.49s12.31.51,18.25,1.49v12.03l14.13-8.76c9.01,2.71,17.51,6.51,25.39,11.26l-39.51,24.6v18.8l53.58-33.33c6.02,5.06,11.48,10.73,16.29,16.93l-69.87,43.49v18.8l78.73-48.96c3.79,6.72,6.89,13.86,9.19,21.36l-87.91,54.69v18.8l91.56-56.95c.7,4.94,1.08,9.99,1.08,15.12,0,3.95-.22,7.83-.63,11.67l-92.01,57.24v15.39h5.48l81.89-50.92c-3.12,9.62-7.56,18.66-13.1,26.91h158.06C383.67,83.33,298.08,0,192.75,0ZM80.75,35.38c-4.66,3.28-9.13,6.79-13.46,10.46l49.33,30.69v-18.8l-35.87-22.34ZM50.15,62.23c-3.65,3.96-7.15,8.08-10.45,12.33l76.92,47.86v-18.8L50.15,62.23ZM32.56,84.37C12,114.6,0,150.98,0,190.12c0,6.99-.05,13.77.7,20.57l63.57.11c-16.15-13.18-28.46-30.77-35-50.92l81.86,50.92h5.48v-15.39l-91.98-57.24c-.41-3.84-.63-7.73-.63-11.67,0-5.13.36-10.18,1.05-15.12l91.56,56.95v-18.8L28.73,94.82c1.1-3.57,2.38-7.05,3.82-10.46h0ZM278.1,205.92c-17.49.02-37.86.05-62.1.15l-38.77,20.38-174.53.27c1.89,11.48,4.42,21.25,8.36,31.97l166.15.17,38.79-18.09h163.93c2.02-11.18,5.17-22.75,5.17-34.67-27.7,0-54.53-.23-106.99-.18h0ZM216,260.05l-38.79,20.74-156.67-.17c2.81,5.37,5.39,10.14,8.5,14.94,3.95,6.09,6.89,11.39,12.3,17.29l135.87-.03,38.79-18.09h141.04c1.73-2.41,1.9-3.12,3.95-6.64,1.7-2.93,3.72-6.85,5.28-9.98,1.58-3.16,3.46-7.14,4.81-10.59,1.06-2.72,1.6-4.91,2.92-7.46h-158ZM216,314l-38.79,20.76H61.62c13.9,13.12,32.39,24.12,49.68,32.82l65.91-.03,38.79-18.06h89.46c12.79-10.25,28.31-22.17,37.82-35.5h-127.28ZM216,368.77l-30.76,16.45c1.02-.54,20.29-.81,26.95-.81,32.82-6.77,35.95-7.5,59.44-15.64h-55.63Z" inkscape:connector-curvature="0" sodipodi:nodetypes="scccscccccccccccccccsccccccccscccccccccccscccccccscccccccccccccccsccccscccccssscccccccccccccsccc"/>
        <path id="path3350-5-8" class="st0" d="M278.08,205.92c-17.48.02-37.83.08-62.07.18l-38.79,20.35-174.53.27c1.89,11.48,4.42,21.24,8.36,31.97l166.16.2,38.79-18.09h36.08l127.83-.03c2.28-7.91,5.17-22.74,5.17-34.67-27.69,0-54.56-.23-107.01-.18h0ZM215.99,260.08l-38.76,20.71-156.69-.17c4.27,8.58,6.75,11.99,9.59,16.65,2.66,4.35,5.42,8.98,11.14,15.58h135.95l38.79-18.09h36.08l104.95-.03c7.11-11.29,13.4-22.48,16.96-34.67l-158.02.03ZM215.99,314.03l-38.76,20.74H61.87c14.46,15.22,32.91,25.33,49.43,32.82h65.93s38.79-18.09,38.79-18.09h89.44c15.06-10.08,28.32-22.19,37.82-35.5l-127.3.03ZM215.99,368.77l-30.74,16.45c34.02,1.53,63.77-6,86.39-16.45h-55.64Z" inkscape:connector-curvature="0" sodipodi:nodetypes="ccccccccccsccccsccccccccccccccccccccc"/>
      </g>
    </g>
  </g>
</svg>