<?xml version="1.0" encoding="UTF-8"?>
<svg id="Layer_1" xmlns="http://www.w3.org/2000/svg" version="1.1" viewBox="0 0 2400 2400">
  <!-- Generator: Adobe Illustrator 30.3.0, SVG Export Plug-In . SVG Version: 2.1.3 Build 182)  -->
  <defs>
    <style>
      .st0 {
        fill: #49629a;
      }

      .st1 {
        fill: #b3bed5;
      }

      .st2 {
        fill: #7e90b7;
      }

      .st3 {
        fill: #bbc4d9;
      }

      .st4 {
        fill: #fefeff;
      }

      .st5 {
        fill: #004a83;
      }

      .st6 {
        fill: #fff;
      }

      .st7 {
        fill: #798cb5;
      }

      .st8 {
        fill: #031f70;
      }

      .st9 {
        fill: #011d6f;
      }

      .st10 {
        fill: #001c6e;
      }

      .st11 {
        fill: #fefefe;
      }

      .st12 {
        fill: #ced5e4;
      }

      .st13 {
        fill: #fcfdfd;
      }
    </style>
  </defs>
  <path class="st10" d="M1144.91,2281.05c-246.02-12.77-477.69-108.8-660.15-272l-27-24.81-37.91-38.01-13.57-14.84c-64.22-70.23-118.75-148.17-162.39-232.57-159.84-309.2-159.86-680.47-.03-989.65,41.92-81.09,92.48-157.2,154.78-224.33l23.26-25.06,38.92-38.96,20.91-19.16c6.73-6.17,13.02-11.66,20.06-17.69,180.61-154.64,406.32-245.16,644.38-257.08l115.56.09c252.2,12.96,490.67,114.95,675.15,286.29,233.39,216.76,358.7,523.06,343.59,842.8-11.99,253.72-113.37,494.9-285.88,680.67l-51.72,52.14-21.7,20.1c-182.53,162.97-414.22,259.34-659.46,272.02l-116.79.06Z"/>
  <path class="st6" d="M1910.64,1940.8c-392.73,374.17-1010.29,377.96-1406.36,8.86l-53.88-53.9c-171.26-183.82-268.46-424.42-274.05-675.59-6.13-274.99,98.31-539.96,288.93-736.77,201.77-208.33,482.21-321.97,772.99-311.85,249.09,8.67,486.58,107.26,667.9,278.51l43.71,43.68c183.75,194.35,283.29,452.59,279.32,719.72-4.1,275.63-119.22,537.42-318.55,727.34Z"/>
  <g>
    <polygon class="st10" points="2172.01 1269.98 2043.94 1274.21 2042.65 1244.32 2116.68 1184.36 2040.78 1186.15 2039.85 1154.75 2168.26 1151.15 2169.73 1180.4 2095.41 1241.04 2171.14 1238.76 2172.01 1269.98"/>
    <path class="st10" d="M1364.36,384.03c-10.47,1.26-19.59-1.51-29.83-2.69l-47.53-82.03-9.99,74.89-31.23-4.3,16.14-127.38,29.67,3.75,47.52,82.52,10.01-75.14,30.9,3.78-15.65,126.6Z"/>
    <polygon class="st10" points="393.24 845.16 414.59 856.07 444.97 793.68 469.19 805.75 423.9 898.64 308.19 842.21 352.37 751.36 376.85 762.56 347.61 823.52 368.7 833.5 395.52 778.96 419.77 790.66 393.24 845.16"/>
    <path class="st10" d="M344.24,974.5c7.09,3.55,14.76,5.69,22.86,7.47l20.6-65.92,25.83,8.57-31.31,98.17-122.61-38.77,30.49-96.65,25.71,7.55-19.92,64.76,22.21,6.97,18.4-57.31,25.7,7.25-17.96,57.91Z"/>
    <polygon class="st10" points="309.84 1185.38 308.85 1242.52 355.07 1243.29 354.24 1277.32 225.94 1274.88 227.48 1179.02 254.45 1179.76 253.57 1241.85 281.82 1241.92 282.84 1184.78 309.84 1185.38"/>
    <polygon class="st10" points="1503.39 348.79 1495.95 374.8 1441.21 358.83 1427.66 402.42 1395.4 393.1 1432.15 269.77 1523.77 297.3 1516.43 323.25 1456.86 305.6 1448.97 332.81 1503.39 348.79"/>
    <polygon class="st10" points="1093.32 303.27 1098.21 329.92 1042.01 340.07 1049.97 385.67 1016.54 391.44 994.35 264.57 1089.29 248 1093.66 274.59 1032.61 285.32 1037.31 313.44 1093.32 303.27"/>
    <path class="st10" d="M1214.58,370.48c-10.74,2.18-22.02.87-33.82.75l-.66-128.61,33.97.07.51,127.79Z"/>
    <path class="st10" d="M2066.01,1373.12c17.3-4.17,33.23,6.96,36.85,22.66s-5.93,32.86-23.47,36.65c-14.6,3.15-30.79-5.5-35.37-21.49-4.35-15.2,3.92-33.47,21.98-37.82Z"/>
    <path class="st10" d="M308,1373.17c17.42-4.15,33.21,6.82,36.86,22.62,3.74,16.21-5.94,32.9-23.45,36.61-14.73,3.12-30.76-5.33-35.37-21.47-4.34-15.2,3.91-33.46,21.96-37.76Z"/>
    <g>
      <path class="st10" d="M1888.34,620.46c-.69-.68-1.2-1.29-1.06-1.67,1.36-3.63,3.51-.33.23-.07-.56.04-1.17-.52-1.8-1.25l-61.96,19.33-15.52-16.39,25.79-66.08c.18-1.37-.59-1.45-2.29-.26l-54.97,51.5-20.89-22.34,94.5-87.6,24.58,26.58-28.61,78.2,79.7-23.5,24.65,26.93-94.02,87.57-20.73-22.17,52.39-48.8Z"/>
      <path class="st3" d="M1888.34,620.46l-2.63-2.99,3.29-1.64c1.46-.73,3.7.79,2.12,2.18l-2.78,2.45Z"/>
      <path class="st0" d="M1834.02,554.33c-.63-.06-1.39.16-2.29-.26-.03-.77.37-1.56,1.27-2.1s2.47,0,2.88.94c.29.67-1.16,1.62-1.86,1.42Z"/>
    </g>
    <g>
      <path class="st10" d="M734.12,430.76c-2.84.02-3.79,2.37-2.87,7.07l9.37,60.15-17.56,12.63-57.86-32.83c-1.54.04-2.45-.5-2.71-1.63-1.35-1-3.27-2.06-2.16-.15,1.53.4,1.94,1.17.76,2.16l41.28,61.31-24.7,17.05-72.47-106.43,30.61-20.45,72.48,40.7-11.24-82.43,30.42-20.45,72.31,106.02-24.74,17.09-40.92-59.83Z"/>
      <path class="st1" d="M734.12,430.76c-2.65,1-2.62,4.62-2.87,7.07-.59-3.81-2.46-7.06-.84-11.91,2.76.7,2.57,3.18,3.71,4.84Z"/>
      <path class="st12" d="M665.2,477.79l-4.11.38c-1.06-.11-1.58-1.77-.76-2.16.71-1.28,1.43-1.19,2.16.15l2.71,1.63Z"/>
      <path class="st7" d="M662.5,476.16c-.58-.35-1.54-.45-2.16-.15-1.49.53-2.53-.67-2.14-1.22.68-.97,2.12-1.15,2.8-.79.77.42,1.2,1.01,1.5,2.17Z"/>
    </g>
    <g>
      <path class="st10" d="M1636.58,348.48c27.2,22.54,30.99,59.29,12.64,87.36-18.13,27.72-54.38,37.18-85.67,22.64-26.66-12.39-44.31-37.99-41.81-67.28,2.41-28.23,21.85-53.66,51.5-59.88,22.4-4.7,45.03,1.99,63.34,17.17Z"/>
      <path class="st6" d="M1610.62,427.36c-10.22,7.52-21.48,9.86-33.58,5.27-7.85-2.97-16.76-10.97-19.86-21.86-5.31-18.65,3.31-38.31,20.64-46.91,11.21-5.56,23.14-4.55,33.45,1.74,9.57,5.84,15.96,17.5,15.32,30.51-.59,11.9-5.96,23.87-15.98,31.24Z"/>
    </g>
    <g>
      <path class="st10" d="M932.03,419.09c-37.83,15.28-77.73-1.2-91.29-38.34-13.05-35.75,6.77-73.47,43.99-86.43s73.03,2.74,86.64,37.39c13.58,34.58-3.05,72.72-39.33,87.37Z"/>
      <path class="st6" d="M930.97,385.79c-10.62,10.51-25.36,11.21-38.19,5.21-10.13-4.74-18.81-15.58-21-28.98-2.39-14.65,3.22-28.93,14.79-36.51,11.72-7.68,27.03-8.09,38.86,1.05,18.44,14.25,22.99,41.97,5.54,59.24Z"/>
    </g>
    <g>
      <path class="st10" d="M613.15,622.09c-27.78,28.88-70,30.27-97.52,3.46-27.27-26.57-25.8-68.7,1.62-96.46,26.61-26.95,68.31-29.92,95.76-3.48s27.35,68.18.14,96.48Z"/>
      <path class="st6" d="M581.95,609.02c-14.16,6.2-28.7,2.84-39.58-6.16-10.01-8.28-16.16-21.95-13.56-36.02s12.61-23.2,23.47-26.19c13.95-3.84,26.98.97,36.55,10.42,8.7,8.59,13.46,19.23,12.34,31.23-.99,10.55-7.3,21.5-19.23,26.72Z"/>
    </g>
    <g>
      <path class="st10" d="M1706.83,545.05l5.29-40.5-19.26-14.38-21.4,28.2-26.97-20.16,76.21-103.26,53.71,40.18c21.21,15.86,25.58,43.49,8.32,63.6-9.33,13.17-24.16,20.99-41.77,18.73l-3.82,49.21-30.31-21.62Z"/>
      <path class="st11" d="M1730.64,484.21l-21.61-15.94,22.6-31.1,20.56,14.49c9.49,6.68,11.64,17.22,6.32,25.89-5.98,9.74-17.16,14.56-27.86,6.67Z"/>
    </g>
    <g>
      <path class="st10" d="M332.58,1095.84l-4.2,24.29,35.13,5.92-5.59,33.48-127.01-20.43,10.36-63.89c2.3-14.21,9.98-26.17,21.54-34.36,24.46-12.31,57.34-3.23,67.61,23.91l45.57-19.14-5.64,37.03-37.77,13.2Z"/>
      <path class="st11" d="M301.72,1115.92l-38.53-5.94,5.04-29.82c1.93-11.4,13.84-14.22,24.13-11.53,9.52,2.49,14.76,11.75,13.06,22.92l-3.7,24.37Z"/>
    </g>
    <g>
      <polygon class="st10" points="1925.64 798.03 1939.85 777.4 1910.57 730.77 1885.96 734.72 1867.87 705.77 2005.71 683.82 2024.75 713.07 1944.6 827.32 1925.64 798.03"/>
      <path class="st13" d="M1978.27,717.43c3.91-.65,6.36-.55,3.66,3.19l-25.22,33.99-18.95-28.83,40.51-8.34Z"/>
      <path class="st2" d="M1981.94,720.62c-.57-2.18-2.36-2.88-3.66-3.19,2.19-.45,4.07-2.94,7.98-.7l-4.32,3.89Z"/>
    </g>
    <g>
      <path class="st10" d="M482.85,782.64l-105.59-73.68,36.96-52.35c20.72-29.35,60.41-33.33,88.64-11.31,27.27,19.27,33.34,55.01,16.17,84.2l-36.17,53.14Z"/>
      <path class="st6" d="M479.54,738.63l-60.02-41.47,14.58-21.05c11.84-17.1,35.67-14.17,50.77-1,11.6,10.12,17.49,24.26,11.34,39.13l-16.67,24.38Z"/>
    </g>
    <g>
      <polygon class="st10" points="1504.19 2133.64 1474.73 2145.8 1426.97 2029.74 1454.36 2018.37 1535.71 2064.83 1508.42 1996.65 1537.61 1985.1 1585.58 2101.51 1558.06 2112.27 1476.19 2065.52 1504.19 2133.64"/>
      <polygon class="st10" points="840.72 2104.22 811.38 2088.29 835.5 2045.79 791.1 2021.42 766.5 2063.33 737.28 2047.3 800.48 1937.54 830.04 1953.35 804.3 1998.08 848.85 2022.7 874.82 1977.9 904.23 1994.2 840.72 2104.22"/>
      <path class="st10" d="M1621.83,2022.23c1.08,7.87,6.71,12.73,11.31,20.43l58.6-36.54,14.7,22.29-87.27,54.57-68.78-105.7,85.82-54.01,14.49,21.88-57.08,36.26,11.95,19.22,52.37-31.76,14.24,21.77-50.34,31.59Z"/>
      <path class="st10" d="M1787.39,1958.92c-16.02,25.03-43.82,39.01-73.03,41.28l-7.93-27.98c25.53.25,61.19-17.59,54.42-32.06-2.24-4.79-8.12-7.59-13.81-5.11l-34.58,15.04c-16.12,7.01-31.95,3.14-42.46-10.69-8.93-11.76-9.82-27.96-.75-42.55,13.48-21.67,36.91-35.39,62.81-40.83l8.55,27.98c-22.78,4.46-52.63,20.12-44.76,31.15,2.97,4.16,7.97,5.77,13.05,3.64l33.56-14.13c16.2-6.82,31.82-3.57,42.84,9.04,10.46,11.97,12.27,29.32,2.09,45.22Z"/>
      <polygon class="st10" points="1036.34 2139.73 1028.5 2167.14 944.22 2143.91 980.18 2022.39 1012.69 2031.42 984.94 2125.01 1036.34 2139.73"/>
      <polygon class="st10" points="908.4 2130.02 876.76 2118.15 925.55 2001.35 956.93 2013.22 908.4 2130.02"/>
      <path class="st10" d="M1437.07,2154.05c-10.31,5.52-21.51,6.12-32.7,9.55l-30.78-121.74,32.77-8.44,30.7,120.63Z"/>
      <polygon class="st10" points="1091.12 2176.61 1057.64 2171.53 1079.72 2047.59 1112.94 2052.58 1091.12 2176.61"/>
      <g>
        <path class="st10" d="M702.53,1978.31l-25.95-19.14-22.3,27.33-26.19-20.84,80-99.24,53.01,41.95c19.24,15.23,19.12,42.09,2.63,59.31-14.57,19.64-39.61,23.9-61.21,10.64Z"/>
        <path class="st11" d="M715.09,1953.82l-21.63-15.69,24.36-30.18c8.06,6.47,16.86,11.47,22.82,19.34s2.47,16.33-2.54,21.96c-5.7,6.41-14.7,10.61-23.01,4.58Z"/>
      </g>
      <g>
        <path class="st10" d="M1297.98,2146.09l3.48,34.44-33.76,4.22-14.66-124.64,66.67-7.67c25.46-2.93,46.11,16.11,46.07,41.49,2.94,22.69-11.27,41.44-33.01,47.08l-34.79,5.09Z"/>
        <path class="st11" d="M1321.08,2116.14l-26.93,3.92-4.36-37.86,30.15-2.31c9.31-.72,13.47,9.49,14.1,17.21.68,8.3-2.8,17.57-12.96,19.04Z"/>
      </g>
      <g>
        <path class="st10" d="M1199.14,2150.13l-34.92-.17-1.9,34.36-33.52-1.11,6.37-125.88,68.16,3.28c24.4,1.18,40.67,22.18,37.5,46.17-.3,23.28-17.25,41.36-41.7,43.34Z"/>
        <path class="st11" d="M1189.03,2123.96l-23.11-.72,1.71-38.23,26.01,1.29c11.21.55,16.12,10.53,15.37,19.94-.82,10.34-7.56,18.12-19.98,17.73Z"/>
      </g>
    </g>
    <g>
      <path class="st10" d="M2147.55,1082.65c-12.67,28.45-42.03,41.62-71.6,37.04-27.32-4.23-48.55-26.47-54.44-55.28-6.13-29.98,5.94-60.02,32.01-74.32s59.74-11.2,80.54,11.76c19.68,21.72,25.84,53.09,13.5,80.8Z"/>
      <path class="st6" d="M2121.95,1063.63c-10.72,23.98-43.34,29.92-62.16,12.82-10.03-9.11-12.77-22.62-8.44-35.33,3.65-10.76,13.28-20.2,26.28-23.65,13.18-3.5,26.55-.72,35.94,8.19s14.91,23.36,8.38,37.97Z"/>
    </g>
    <g>
      <path class="st10" d="M1125.68,1985.95c-370.64-33.57-667.06-327.45-703.97-697.1-22.23-222.69,51.78-445.11,205.77-609.71,295.46-315.8,788.58-329.5,1101.05-36.78,314.51,294.63,329.45,789.73,33.7,1102.8-162.13,171.62-396.88,262.5-636.56,240.8Z"/>
      <path class="st6" d="M1732.86,1721.17c-280.49,294.9-746.88,307.71-1042.88,30.15-295.7-277.27-314.57-742.03-38.9-1041.69,157.31-171,384.27-257.3,613.62-236.21,368.05,33.85,655.93,336.53,671.5,705.92,8.45,200.58-65.31,396.72-203.33,541.83Z"/>
      <g>
        <g>
          <g>
            <path class="st5" d="M984.37,1520.4c-.73-.6-1.39-1.23-1.77-2-1.75-3.54,48.03-49.33,55.68-54.85,96.35,60.91,223.22,46.33,299.09-39.94l8.24-3.48,3.36-2.47,185.12-.03c8.36,2.71,7.54-27.46,1.11-26.64l-163.7-.52-2.4-4.01c-.12-8.76,2.64-17.62,8.27-26.56,0,0,3.57-10.55,10.71-31.66.59-9.02,3.21-16.49,7.85-22.41l4.96,1.82,134.85-.02c6.06-.56,6.13-24.72,0-26.29l-134.81.22-2.43-3.99c-3.52-5.91-4.76-13.07-3.73-21.49-3.07-20.21-4.6-30.31-4.6-30.31-3.84-9.13-4.84-17.59-3.02-25.37l1.86-4,146.76-.55c5.51.79,6.24-26.71-.31-26.2-54.04.78-107.88.27-161.5-1.54-7.38-5.4-13.26-12.89-17.64-22.47,0,0-8.21-10.33-24.62-30.99-9.25-7.22-16.27-15.4-21.07-24.52l1.39-4h223.94c5.74-.94,6.78-29.47-2.38-26.45l-263.63.07c-4.95-1.52-9.67-2.22-14.17-2.1l-8.73.82c-88.16-33.83-190.08-8.86-252.46,62.08l-8.1,3.32-.34-357.48c0-5.63,4.39-10.27,10.34-10.27l637.07-.03c6.16,0,11.48,2.87,11.48,9.53l.02,839.25c0,5.32-4.06,9.62-9.51,9.62l-639.11.03c-6.11,0-10-3.49-10.05-8.85l-2.01-85.23Z"/>
            <path class="st6" d="M1543.54,969.96c.15,4.78-2.55,7.73-8,8.5h-451.12c-5.47-.64-8.28-3.72-8.28-8.46v-17.98c0-4.75,2.94-7.48,8.36-8.06h449.03c3.97-.01,9.27,1.64,9.37,4.73l.65,21.27Z"/>
          </g>
          <path class="st6" d="M1310.63,1090.1c-17.23-13.49-34.29-23.87-54.84-32.48-.73-1.27.18-1.9,2.32-1.9l275.64-.06c4.92,0,9.56,2.15,9.6,6.53l.22,19.86c.05,4.26-2.84,8.04-7.89,8.04h-225.07Z"/>
          <path class="st4" d="M1345.61,1420.13l23.49-33.67,165.63.51c3.36,0,8.37,2.49,8.38,5.57l.08,22.91c.02,4.31-5.15,6.18-9.46,6.18l-183.51.11c-2.07,0-3.77-.59-4.61-1.6Z"/>
          <path class="st6" d="M1387.16,1200.38l-13.2-32.29c.07-1.48,1.95-2.56,4.16-2.56l157.65.12c4.91,0,7.94,4.13,7.81,8.3l-.67,21.37c-.1,3.12-5.71,4.69-9.09,4.69l-146.66.37Z"/>
          <path class="st6" d="M1395.93,1305.83l2.58-28.27,135.46-.4c4.59,0,9.43,2.6,9.42,7.03l-.04,21.61c0,3.45-4.17,5.82-7.77,5.82l-139.1.04c-.87-2.3-.52-4.19-.54-5.82Z"/>
        </g>
        <g>
          <path class="st10" d="M794.06,1710.89c-17.92,16.12-43.54,14.71-58.83-1.11-16.23-16.79-15.74-42.43.77-60.04l83.41-83.81,61.83,57.89-87.17,87.08Z"/>
          <path class="st8" d="M902.11,1601.13c-1.45,4.74-4.57,7.07-8.35,9.17l-60.66-56.07c1.39-4.4,4.89-7.91,8.91-8.69l60.1,55.59Z"/>
          <g>
            <path class="st10" d="M1255.79,1057.62c18.68,2.93,35.95,11.3,51.79,25.12l3.05,7.36c26.78,20.96,47.89,47.43,63.34,77.99l4.54.54c1.61,2.79,11.67,26.22,11.31,27.67-.42,1.69-1.19,3.06-2.65,4.08,8.29,25.27,13.72,51.33,11.36,77.18,3.99,2.14,4.88,7.13,2.65,14.95.74,7.26-1.01,11.7-5.23,13.32-2.58,28.21-13.3,54.92-26.84,80.63,1.03,1.23,2.56,3.07,1.98,4.15-1.79,3.35-19.31,28.31-21.03,29.16-1.46.72-2.88.92-4.44.36-75.61,91.52-207.55,111.83-307.46,46.77l-53.78,53.49-68.92,69.26-61.38-58.44,123.1-122.79c-62.5-86.7-57.83-203.28,9.33-284.6,65.17-78.9,174.58-105.91,269.29-66.21Z"/>
            <g>
              <path class="st6" d="M1146.05,1085.09c104.93-12.01,197.59,64.26,209.14,166.49,11.73,103.92-63.46,197.88-167.58,209.2-102.51,11.14-195.74-62.73-207.99-165.65-12.22-102.63,60.8-197.94,166.44-210.03Z"/>
              <g>
                <path class="st10" d="M1153.91,1111.03c90.72-6.23,166.43,62.8,172.5,150.18,6.19,89.19-61.36,166.23-149.54,172.69-89.36,6.55-166.55-60.34-173.39-149.11-6.81-88.48,59.62-167.53,150.43-173.76Z"/>
                <path class="st6" d="M1141.94,1129.21c81.6-13.16,155.37,42.6,167.82,121.65,12.47,79.22-41.88,153.95-121.14,166.84-78.62,12.78-153.35-40.28-167.21-118.63-14.02-79.26,38.62-156.65,120.53-169.85Z"/>
                <path class="st10" d="M1194.91,1328.05c3.75,8.08-45.88,47.5-62.49,26.92-3.39-4.2-5.18-12.09-2.13-18.69l27.11-58.74c.59-1.28.28-3.51-.02-4.24-.51-1.23-3.02-2.16-4.79-.55l-17.82,16.25c-2.17,1.98-5.22-1.57-5.93-3.17-4.09-9.17,41.53-49.2,59.16-28.66,4.25,4.95,7.33,13.96,4.29,21.17l-24.7,58.53c11.65,5.28,21.49-21.43,27.35-8.81Z"/>
                <path class="st9" d="M1184.02,1193.19c11.79-5.02,23.52,1.01,27.87,11.58,4.09,9.95-.56,22.74-11,27.17s-21.52-.05-26.74-9.4c-5.66-10.15-2.28-24.19,9.87-29.36Z"/>
              </g>
            </g>
          </g>
        </g>
      </g>
    </g>
    <g>
      <polygon class="st10" points="1970.19 886.95 1955.69 856.22 2047.23 814.73 2031.87 780.19 2057.23 768.43 2102.61 868.66 2077.26 880.51 2061.33 845.66 1970.19 886.95"/>
      <polygon class="st10" points="2124.1 933.68 2002.12 974.33 1991.5 941.99 2113.44 901.45 2124.1 933.68"/>
    </g>
  </g>
</svg>