<svg xmlns="http://www.w3.org/2000/svg" id="Layer_1" version="1.1" viewBox="323.31 28.97 408.32 409.8">
  <!-- Generator: Adobe Illustrator 30.3.0, SVG Export Plug-In . SVG Version: 2.1.3 Build 182)  -->
  <defs>
    <style>
      .st0 {
        fill: #f8491f;
      }

      .st1 {
        fill: #5e5f5f;
      }

      .st2 {
        fill: #5f5f5f;
      }

      .st3 {
        fill: #fca302;
      }

      .st4 {
        fill: #fefefd;
      }

      .st5 {
        fill: #616262;
      }

      .st6 {
        fill: #ee5811;
      }

      .st7 {
        fill: #fe9c11;
      }

      .st8 {
        fill: #ee5a12;
      }

      .st9 {
        fill: #5f5f60;
      }

      .st10 {
        fill: #636363;
      }

      .st11 {
        fill: #fd990f;
      }

      .st12 {
        fill: #fefefe;
      }

      .st13 {
        fill: #ed5512;
      }

      .st14 {
        fill: #616161;
      }

      .st15 {
        fill: #e6ac3c;
      }

      .st16 {
        fill: #fd9710;
      }

      .st17 {
        fill: #fdfdfd;
      }
    </style>
  </defs>
  <path class="st5" d="M397.31,295.44c0,3.56-2.72,4.88-4.7,4.97-3.11.14-4.98-1.92-4.98-5.32l.06-58.5c0-2.86,2.91-3.91,4.92-3.82,2.11.09,4.59,1.34,4.6,4.28l.11,58.39Z"/>
  <path class="st10" d="M499.2,348.89l-59.99.1c-2.33,0-3.19-3.15-3.23-4.5-.04-1.61.85-5,3.42-5l58.31-.12c2.65,0,4.05,1.75,4.68,3.73.5,1.58-.15,5.79-3.19,5.8Z"/>
  <path class="st1" d="M667,232.52c0,3.61-3.55,4.37-5.82,3.84s-3.74-2.28-3.74-5.37l.05-57.93c0-2.82,1.81-4.35,3.88-4.76s5.56.56,5.57,3.72l.06,60.52Z"/>
  <path class="st14" d="M616.04,129.2l-61.24.22c-2.49,0-3.09-3.46-3.08-4.87s.71-4.6,3.22-4.6l60.58.04c2.26,0,2.92,2.46,3.24,3.62.37,1.35-.15,5.59-2.72,5.6Z"/>
  <g>
    <path class="st14" d="M679.21,150.08c-13.75,8.75-30.88,5.78-40.54-6.37s-8.73-29.5,2.51-40.58c10.86-10.71,28.6-11.96,40.66-1.43,7.2,6.28,11.24,15.27,10.73,24.71-.48,8.86-4.87,18.26-13.36,23.67Z"/>
    <path class="st12" d="M654.23,143.87c-7.61-3.46-12.49-10.78-12.62-18.87-.2-12.85,11.19-22.53,23.25-20.81,12.24,1.74,20.65,13.25,17.51,25.89-2.85,11.44-15.89,19.36-28.14,13.8Z"/>
  </g>
  <g>
    <path class="st9" d="M411.52,367.98c-12.08,9.9-28.95,8.49-39.53-1.39s-12.84-26.9-4.77-39.12c8.4-12.72,24.92-17.57,38.82-10.45,9.31,4.77,15.24,13.88,16.44,23.31,1.34,10.45-2.37,20.6-10.97,27.66Z"/>
    <path class="st12" d="M389.2,323.61c11.91-2.22,21.94,6.79,23.76,17.17,2.05,11.7-5.96,22.08-16.7,24.07-11.57,2.14-21.86-5.63-24.14-16.58s4.89-22.39,17.08-24.66Z"/>
  </g>
  <g>
    <path class="st2" d="M471.51,209.81c3.7-.01,5.65,1.28,6.2,3.97.43,2.1-.54,5.57-3.77,5.58l-83.77.12c-3.61,0-6-1.63-5.88-4.88.11-2.94,2.28-4.82,5.8-4.78l11.2.13.14-15.55-56.34-.48c-11.99-.1-21.78-11.74-21.78-23.93V52.93c-.02-11.02,9.11-23.79,20.96-23.8l172.59-.16c12.45-.01,21.96,12.17,21.97,23.99l.06,117.05c0,12.29-9.67,23.87-21.93,23.93l-56.12.27-.02,15.62,10.69-.04Z"/>
    <polygon class="st17" points="451.1 209.89 411.06 209.98 411.13 194.25 451.06 194.2 451.1 209.89"/>
    <g>
      <path class="st4" d="M514.97,184.5l-167.46.06c-8.3,0-14.66-7.45-14.66-15.61l-.09-115.86c.92-8.13,6.29-14.72,14.8-14.72l167.99.03c7.92,0,12.77,7.05,13.88,14.25l-.18,117.68c-.01,7.46-6.28,14.16-14.29,14.16Z"/>
      <g>
        <path class="st0" d="M512.95,171.06l-161.6-.02c-3.2,0-5.06-2.1-5.06-5.31l-.03-109.47c.45-2.96,1.94-4.53,5.05-4.53h159.45c3.12-.01,4.7,1.53,5.15,4.49v109.64c-.01,2.14-.59,3.88-2.96,5.2Z"/>
        <path class="st16" d="M453.16,145.73c3.51-2.09,7.54-.84,8.98,2.47,1.11,2.54.67,6.5-2.24,8.14-2.67,1.5-6.9,1.17-8.7-1.88-1.35-2.29-1.42-6.71,1.97-8.73Z"/>
        <path class="st7" d="M402.26,145.72c3.46-2.12,7.52-.79,9.01,2.46,1.14,2.48.72,6.56-2.23,8.17-2.68,1.46-6.89,1.25-8.72-1.91-1.27-2.19-1.4-6.68,1.94-8.72Z"/>
        <path class="st11" d="M428.19,145.63c3.44-1.97,7-.58,8.37,2.28,1.47,3.05.5,6.6-2.58,8.51-2.59,1.62-5.91.83-7.9-1.91-1.84-2.53-1.58-6.77,2.1-8.88Z"/>
      </g>
    </g>
  </g>
  <g>
    <path class="st2" d="M667.52,438.57l-86.56.2c-2.78,0-3.72-3.47-3.57-5.22.2-2.31,1.62-4.27,4.51-4.3l12.16-.13-.06-16.38-56.03-.29c-12-.06-22-11.16-22.02-23.49l-.19-113.08c-.02-11.46,8.38-25.59,21.2-25.6l173.47-.13c11.38,0,21.11,12.09,21.12,22.73l.08,116.11c0,12.43-10.21,23.44-22.34,23.51l-55.64.31-.09,16.39,12.86.08c2.33.01,3.34,2.1,3.86,3.5s-.07,5.79-2.77,5.79Z"/>
    <polygon class="st12" points="644.03 429.22 603.63 429.26 603.7 412.66 643.92 412.72 644.03 429.22"/>
    <g>
      <path class="st4" d="M722.2,388.4c0,8.6-6.8,14.75-14.79,14.74l-168.5-.15c-7.74,0-13.38-7.75-13.38-15.01v-112.94c.02-7.96,6.13-15.38,14.37-15.38l168.54.04c7.56,0,13.7,7.32,13.71,14.57l.06,114.14Z"/>
      <g>
        <path class="st15" d="M698.8,389.97l-152.86-.02c-2.61,0-6.93-1.1-6.94-4.12l-.09-107.71c0-3.34,2.89-5.09,6.01-5.09l158.38.02c1.96,0,3.42.75,4.17,1.46,1.21,1.17,1.1,2.6,1.1,4.56l-.04,108.7c-2.91,1.53-5.53,2.21-9.73,2.21Z"/>
        <path class="st3" d="M704.65,388.02l-157.7-.03c-3.98,0-6.19-2.27-6.19-6.04l.06-102.85c0-2.47,1.6-4.13,4.14-4.13l156.42-.03c2.12,0,3.38-.22,4.73.93.83.71,1.35,2.25,1.35,4.19v101.85c0,2.44-.26,4.56-2.81,6.11Z"/>
        <path class="st8" d="M594.73,364.65c3.69-1.97,7.81-.72,9.26,2.47,1.3,2.85.53,6.74-2.36,8.36s-7.03,1.18-8.95-1.84c-1.56-2.45-1.5-7.09,2.05-8.99Z"/>
        <path class="st6" d="M647.14,376.12c-3.03-.85-4.11-3.4-4.16-5.62s1.23-4.31,3.4-5.79c2.43-1.65,5.35-1.24,7.33.63s2.76,4.97,1.34,7.6c-1.3,2.39-4.13,4.23-7.92,3.17Z"/>
        <path class="st13" d="M620.73,364.51c3.36-1.86,7.03.02,8.42,2.52,1.61,2.9.64,7.23-2.25,8.71s-6.39.48-8.27-2.14-1.64-7.03,2.11-9.1Z"/>
      </g>
    </g>
  </g>
</svg>