<svg width="33" height="30" viewBox="0 0 33 30" fill="none" xmlns="http://www.w3.org/2000/svg">
<path d="M17.4722 4.18123C12.4233 4.18123 8.15156 7.54185 6.69983 12.175C8.85816 11.0656 11.2927 10.4457 13.875 10.4457H19.5278C20.0931 10.4457 20.5556 10.9155 20.5556 11.4898C20.5556 12.064 20.0931 12.5339 19.5278 12.5339H13.875C12.8087 12.5339 11.7745 12.6578 10.7724 12.8862C9.10868 13.2712 7.56701 13.9564 6.18594 14.8896C2.46024 17.4149 0 21.7283 0 26.6289V27.673C0 28.5409 0.687326 29.2391 1.54167 29.2391C2.39601 29.2391 3.08333 28.5409 3.08333 27.673V26.6289C3.08333 23.451 4.41302 20.5928 6.53924 18.5895C7.81111 23.5163 12.2241 27.151 17.4722 27.151H17.5365C26.022 27.1053 32.8889 18.6091 32.8889 8.13567C32.8889 5.35582 32.4071 2.71299 31.5335 0.331187C31.3665 -0.119072 30.7177 -0.0994954 30.4929 0.324661C29.2852 2.62163 26.8957 4.18123 24.1528 4.18123H17.4722Z" fill="white"/>
</svg>
