<svg width="52" height="41" viewBox="0 0 52 41" fill="none" xmlns="http://www.w3.org/2000/svg">
<path d="M14.0888 21.2439H37.6656V24.7243H39.9657V19.4359H27.0272V15.8198H24.7271V19.4359H11.7886V24.7243H14.0888V21.2439Z" fill="white"/>
<path d="M20.4203 25.7363H6.04417C4.45623 25.7363 3.16895 26.7482 3.16895 27.9964V34.7764C3.16895 36.0246 4.45623 37.0365 6.04417 37.0365H20.4203C22.0082 37.0365 23.2955 36.0246 23.2955 34.7764V27.9964C23.2955 26.7482 22.0082 25.7363 20.4203 25.7363Z" fill="white"/>
<path d="M46.0038 25.9897H31.6277C30.0397 25.9897 28.7524 27.0016 28.7524 28.2498V35.0299C28.7524 36.278 30.0397 37.2899 31.6277 37.2899H46.0038C47.5917 37.2899 48.879 36.278 48.879 35.0299V28.2498C48.879 27.0016 47.5917 25.9897 46.0038 25.9897Z" fill="white"/>
<path d="M33.0648 3.39014H18.6887C17.1008 3.39014 15.8135 4.40199 15.8135 5.65017V12.4303C15.8135 13.6784 17.1008 14.6903 18.6887 14.6903H33.0648C34.6527 14.6903 35.94 13.6784 35.94 12.4303V5.65017C35.94 4.40199 34.6527 3.39014 33.0648 3.39014Z" fill="white"/>
</svg>
