<svg width="41" height="41" viewBox="0 0 41 41" fill="none" xmlns="http://www.w3.org/2000/svg">
<path d="M34.1668 23.4894C34.1668 23.1496 34.0318 22.8237 33.7916 22.5834C33.5513 22.3432 33.2254 22.2082 32.8856 22.2082H27.7606C27.4208 22.2082 27.0949 22.3432 26.8546 22.5834C26.6143 22.8237 26.4793 23.1496 26.4793 23.4894V35.0207H23.9168V7.26025C23.9168 6.01659 23.9134 5.21025 23.8348 4.61917C23.7597 4.06396 23.6384 3.88971 23.541 3.79234C23.4436 3.69496 23.2694 3.57367 22.7142 3.4985C22.1214 3.41992 21.3167 3.4165 20.0731 3.4165C18.8294 3.4165 18.0231 3.41992 17.432 3.4985C16.8768 3.57367 16.7025 3.69496 16.6052 3.79234C16.5078 3.88971 16.3865 4.06396 16.3113 4.61917C16.2327 5.21196 16.2293 6.01659 16.2293 7.26025V35.0207H13.6668V14.9478C13.6668 14.6079 13.5318 14.2821 13.2916 14.0418C13.0513 13.8015 12.7254 13.6665 12.3856 13.6665H7.26058C6.92077 13.6665 6.59488 13.8015 6.3546 14.0418C6.11432 14.2821 5.97933 14.6079 5.97933 14.9478V35.0207H2.98975C2.64994 35.0207 2.32405 35.1557 2.08377 35.3959C1.84348 35.6362 1.7085 35.9621 1.7085 36.3019C1.7085 36.6417 1.84348 36.9676 2.08377 37.2079C2.32405 37.4482 2.64994 37.5832 2.98975 37.5832H37.1564C37.4962 37.5832 37.8221 37.4482 38.0624 37.2079C38.3027 36.9676 38.4377 36.6417 38.4377 36.3019C38.4377 35.9621 38.3027 35.6362 38.0624 35.3959C37.8221 35.1557 37.4962 35.0207 37.1564 35.0207H34.1668V23.4894Z" fill="white"/>
</svg>
